<svg width="34" height="35" viewBox="0 0 34 35" fill="none" xmlns="http://www.w3.org/2000/svg">
<path d="M16.7981 33.2568C25.4877 33.2568 32.532 26.2125 32.532 17.523C32.532 8.83336 25.4877 1.78906 16.7981 1.78906C8.10851 1.78906 1.06421 8.83336 1.06421 17.523C1.06421 26.2125 8.10851 33.2568 16.7981 33.2568Z" stroke="#001F00" stroke-width="2" stroke-linecap="round" stroke-linejoin="round"/>
<path d="M2.1131 12.2783H31.483M2.1131 22.7676H31.483M15.924 1.78906C12.9788 6.50855 11.4174 11.9599 11.4174 17.523C11.4174 23.086 12.9788 28.5374 15.924 33.2568M17.6722 1.78906C20.6173 6.50855 22.1787 11.9599 22.1787 17.523C22.1787 23.086 20.6173 28.5374 17.6722 33.2568" stroke="#001F00" stroke-width="2" stroke-linecap="round" stroke-linejoin="round"/>
</svg>
